<mxfile host="drawio-plugin" modified="2021-10-26T19:42:19.041Z" agent="5.0 (X11; Linux x86_64) AppleWebKit/537.36 (KHTML, like Gecko) Chrome/87.0.4280.141 Safari/537.36" etag="QyL8KenCWjobwiFGyPcF" version="14.7.4" type="embed" pages="2"><diagram id="1iNeDtqRumntLxgnwPfv" name="db"><mxGraphModel dx="2347" dy="1200" grid="1" gridSize="10" guides="1" tooltips="1" connect="1" arrows="1" fold="1" page="1" pageScale="1" pageWidth="850" pageHeight="1100" math="0" shadow="0"><root><mxCell id="0"/><mxCell id="1" parent="0"/><mxCell id="108" value="User" style="swimlane;fontStyle=1;align=center;verticalAlign=top;childLayout=stackLayout;horizontal=1;startSize=26;horizontalStack=0;resizeParent=1;resizeParentMax=0;resizeLast=0;collapsible=1;marginBottom=0;fillColor=#d5e8d4;strokeColor=#82b366;" parent="1" vertex="1"><mxGeometry x="40" y="40" width="160" height="242" as="geometry"/></mxCell><mxCell id="109" value="id" style="text;strokeColor=none;fillColor=none;align=left;verticalAlign=top;spacingLeft=4;spacingRight=4;overflow=hidden;rotatable=0;points=[[0,0.5],[1,0.5]];portConstraint=eastwest;" parent="108" vertex="1"><mxGeometry y="26" width="160" height="26" as="geometry"/></mxCell><mxCell id="110" value="username" style="text;strokeColor=none;fillColor=none;align=left;verticalAlign=top;spacingLeft=4;spacingRight=4;overflow=hidden;rotatable=0;points=[[0,0.5],[1,0.5]];portConstraint=eastwest;" parent="108" vertex="1"><mxGeometry y="52" width="160" height="26" as="geometry"/></mxCell><mxCell id="111" value="password" style="text;strokeColor=none;fillColor=none;align=left;verticalAlign=top;spacingLeft=4;spacingRight=4;overflow=hidden;rotatable=0;points=[[0,0.5],[1,0.5]];portConstraint=eastwest;" parent="108" vertex="1"><mxGeometry y="78" width="160" height="26" as="geometry"/></mxCell><mxCell id="112" value="email" style="text;strokeColor=none;fillColor=none;align=left;verticalAlign=top;spacingLeft=4;spacingRight=4;overflow=hidden;rotatable=0;points=[[0,0.5],[1,0.5]];portConstraint=eastwest;" parent="108" vertex="1"><mxGeometry y="104" width="160" height="26" as="geometry"/></mxCell><mxCell id="113" value="displayName" style="text;strokeColor=none;fillColor=none;align=left;verticalAlign=top;spacingLeft=4;spacingRight=4;overflow=hidden;rotatable=0;points=[[0,0.5],[1,0.5]];portConstraint=eastwest;" parent="108" vertex="1"><mxGeometry y="130" width="160" height="26" as="geometry"/></mxCell><mxCell id="114" value="roles: Set" style="text;strokeColor=none;fillColor=none;align=left;verticalAlign=top;spacingLeft=4;spacingRight=4;overflow=hidden;rotatable=0;points=[[0,0.5],[1,0.5]];portConstraint=eastwest;" parent="108" vertex="1"><mxGeometry y="156" width="160" height="26" as="geometry"/></mxCell><mxCell id="115" value="projectAccessList: Set" style="text;strokeColor=none;fillColor=none;align=left;verticalAlign=top;spacingLeft=4;spacingRight=4;overflow=hidden;rotatable=0;points=[[0,0.5],[1,0.5]];portConstraint=eastwest;" parent="108" vertex="1"><mxGeometry y="182" width="160" height="26" as="geometry"/></mxCell><mxCell id="116" value="" style="line;strokeWidth=1;fillColor=none;align=left;verticalAlign=middle;spacingTop=-1;spacingLeft=3;spacingRight=3;rotatable=0;labelPosition=right;points=[];portConstraint=eastwest;" parent="108" vertex="1"><mxGeometry y="208" width="160" height="8" as="geometry"/></mxCell><mxCell id="117" value="getRoleList" style="text;strokeColor=none;fillColor=none;align=left;verticalAlign=top;spacingLeft=4;spacingRight=4;overflow=hidden;rotatable=0;points=[[0,0.5],[1,0.5]];portConstraint=eastwest;" parent="108" vertex="1"><mxGeometry y="216" width="160" height="26" as="geometry"/></mxCell><mxCell id="131" value="Role" style="swimlane;fontStyle=1;align=center;verticalAlign=top;childLayout=stackLayout;horizontal=1;startSize=26;horizontalStack=0;resizeParent=1;resizeParentMax=0;resizeLast=0;collapsible=1;marginBottom=0;fillColor=#d5e8d4;strokeColor=#82b366;" parent="1" vertex="1"><mxGeometry x="510" y="92" width="160" height="138" as="geometry"/></mxCell><mxCell id="132" value="id" style="text;strokeColor=none;fillColor=none;align=left;verticalAlign=top;spacingLeft=4;spacingRight=4;overflow=hidden;rotatable=0;points=[[0,0.5],[1,0.5]];portConstraint=eastwest;" parent="131" vertex="1"><mxGeometry y="26" width="160" height="26" as="geometry"/></mxCell><mxCell id="133" value="type: RoleType" style="text;strokeColor=none;fillColor=none;align=left;verticalAlign=top;spacingLeft=4;spacingRight=4;overflow=hidden;rotatable=0;points=[[0,0.5],[1,0.5]];portConstraint=eastwest;" parent="131" vertex="1"><mxGeometry y="52" width="160" height="26" as="geometry"/></mxCell><mxCell id="138" value="users: Set" style="text;strokeColor=none;fillColor=none;align=left;verticalAlign=top;spacingLeft=4;spacingRight=4;overflow=hidden;rotatable=0;points=[[0,0.5],[1,0.5]];portConstraint=eastwest;" parent="131" vertex="1"><mxGeometry y="78" width="160" height="26" as="geometry"/></mxCell><mxCell id="152" value="privileges: Set" style="text;strokeColor=none;fillColor=none;align=left;verticalAlign=top;spacingLeft=4;spacingRight=4;overflow=hidden;rotatable=0;points=[[0,0.5],[1,0.5]];portConstraint=eastwest;" parent="131" vertex="1"><mxGeometry y="104" width="160" height="26" as="geometry"/></mxCell><mxCell id="139" value="" style="line;strokeWidth=1;fillColor=none;align=left;verticalAlign=middle;spacingTop=-1;spacingLeft=3;spacingRight=3;rotatable=0;labelPosition=right;points=[];portConstraint=eastwest;" parent="131" vertex="1"><mxGeometry y="130" width="160" height="8" as="geometry"/></mxCell><mxCell id="154" value="Privilege" style="swimlane;fontStyle=1;align=center;verticalAlign=top;childLayout=stackLayout;horizontal=1;startSize=26;horizontalStack=0;resizeParent=1;resizeParentMax=0;resizeLast=0;collapsible=1;marginBottom=0;fillColor=#d5e8d4;strokeColor=#82b366;" parent="1" vertex="1"><mxGeometry x="960" y="105" width="160" height="112" as="geometry"/></mxCell><mxCell id="155" value="id" style="text;strokeColor=none;fillColor=none;align=left;verticalAlign=top;spacingLeft=4;spacingRight=4;overflow=hidden;rotatable=0;points=[[0,0.5],[1,0.5]];portConstraint=eastwest;" parent="154" vertex="1"><mxGeometry y="26" width="160" height="26" as="geometry"/></mxCell><mxCell id="156" value="type: PrivilegeType" style="text;strokeColor=none;fillColor=none;align=left;verticalAlign=top;spacingLeft=4;spacingRight=4;overflow=hidden;rotatable=0;points=[[0,0.5],[1,0.5]];portConstraint=eastwest;" parent="154" vertex="1"><mxGeometry y="52" width="160" height="26" as="geometry"/></mxCell><mxCell id="158" value="roles: Set" style="text;strokeColor=none;fillColor=none;align=left;verticalAlign=top;spacingLeft=4;spacingRight=4;overflow=hidden;rotatable=0;points=[[0,0.5],[1,0.5]];portConstraint=eastwest;" parent="154" vertex="1"><mxGeometry y="78" width="160" height="26" as="geometry"/></mxCell><mxCell id="160" value="" style="line;strokeWidth=1;fillColor=none;align=left;verticalAlign=middle;spacingTop=-1;spacingLeft=3;spacingRight=3;rotatable=0;labelPosition=right;points=[];portConstraint=eastwest;" parent="154" vertex="1"><mxGeometry y="104" width="160" height="8" as="geometry"/></mxCell><mxCell id="162" value="roles_privileges" style="swimlane;fontStyle=1;align=center;verticalAlign=top;childLayout=stackLayout;horizontal=1;startSize=26;horizontalStack=0;resizeParent=1;resizeParentMax=0;resizeLast=0;collapsible=1;marginBottom=0;fillColor=#f5f5f5;strokeColor=#666666;fontColor=#333333;" parent="1" vertex="1"><mxGeometry x="730" y="118" width="160" height="86" as="geometry"/></mxCell><mxCell id="163" value="roleId" style="text;strokeColor=none;fillColor=none;align=left;verticalAlign=top;spacingLeft=4;spacingRight=4;overflow=hidden;rotatable=0;points=[[0,0.5],[1,0.5]];portConstraint=eastwest;" parent="162" vertex="1"><mxGeometry y="26" width="160" height="26" as="geometry"/></mxCell><mxCell id="164" value="privilegeId" style="text;strokeColor=none;fillColor=none;align=left;verticalAlign=top;spacingLeft=4;spacingRight=4;overflow=hidden;rotatable=0;points=[[0,0.5],[1,0.5]];portConstraint=eastwest;" parent="162" vertex="1"><mxGeometry y="52" width="160" height="26" as="geometry"/></mxCell><mxCell id="168" value="" style="line;strokeWidth=1;fillColor=none;align=left;verticalAlign=middle;spacingTop=-1;spacingLeft=3;spacingRight=3;rotatable=0;labelPosition=right;points=[];portConstraint=eastwest;" parent="162" vertex="1"><mxGeometry y="78" width="160" height="8" as="geometry"/></mxCell><mxCell id="171" value="user_roles" style="swimlane;fontStyle=1;align=center;verticalAlign=top;childLayout=stackLayout;horizontal=1;startSize=26;horizontalStack=0;resizeParent=1;resizeParentMax=0;resizeLast=0;collapsible=1;marginBottom=0;fillColor=#f5f5f5;strokeColor=#666666;fontColor=#333333;" parent="1" vertex="1"><mxGeometry x="280" y="118" width="160" height="86" as="geometry"/></mxCell><mxCell id="172" value="userId" style="text;strokeColor=none;fillColor=none;align=left;verticalAlign=top;spacingLeft=4;spacingRight=4;overflow=hidden;rotatable=0;points=[[0,0.5],[1,0.5]];portConstraint=eastwest;" parent="171" vertex="1"><mxGeometry y="26" width="160" height="26" as="geometry"/></mxCell><mxCell id="173" value="roleId" style="text;strokeColor=none;fillColor=none;align=left;verticalAlign=top;spacingLeft=4;spacingRight=4;overflow=hidden;rotatable=0;points=[[0,0.5],[1,0.5]];portConstraint=eastwest;" parent="171" vertex="1"><mxGeometry y="52" width="160" height="26" as="geometry"/></mxCell><mxCell id="174" value="" style="line;strokeWidth=1;fillColor=none;align=left;verticalAlign=middle;spacingTop=-1;spacingLeft=3;spacingRight=3;rotatable=0;labelPosition=right;points=[];portConstraint=eastwest;" parent="171" vertex="1"><mxGeometry y="78" width="160" height="8" as="geometry"/></mxCell><mxCell id="176" value="" style="edgeStyle=entityRelationEdgeStyle;fontSize=12;html=1;endArrow=ERoneToMany;startArrow=ERmandOne;" parent="1" source="108" target="171" edge="1"><mxGeometry width="100" height="100" relative="1" as="geometry"><mxPoint x="300" y="245" as="sourcePoint"/><mxPoint x="400" y="245" as="targetPoint"/></mxGeometry></mxCell><mxCell id="177" value="" style="edgeStyle=entityRelationEdgeStyle;fontSize=12;html=1;endArrow=ERoneToMany;startArrow=ERmandOne;" parent="1" source="131" target="171" edge="1"><mxGeometry width="100" height="100" relative="1" as="geometry"><mxPoint x="480" y="215" as="sourcePoint"/><mxPoint x="440" y="308" as="targetPoint"/></mxGeometry></mxCell><mxCell id="178" value="" style="edgeStyle=entityRelationEdgeStyle;fontSize=12;html=1;endArrow=ERoneToMany;startArrow=ERmandOne;" parent="1" source="131" target="162" edge="1"><mxGeometry width="100" height="100" relative="1" as="geometry"><mxPoint x="600" y="343.9999999999999" as="sourcePoint"/><mxPoint x="670" y="305" as="targetPoint"/></mxGeometry></mxCell><mxCell id="179" value="" style="edgeStyle=entityRelationEdgeStyle;fontSize=12;html=1;endArrow=ERoneToMany;startArrow=ERmandOne;" parent="1" source="154" target="162" edge="1"><mxGeometry width="100" height="100" relative="1" as="geometry"><mxPoint x="940" y="424.9999999999999" as="sourcePoint"/><mxPoint x="830" y="425" as="targetPoint"/></mxGeometry></mxCell></root></mxGraphModel></diagram><diagram id="6aSCpI7C30CoJHbIULjT" name="routing"><mxGraphModel dx="1360" dy="1208" grid="1" gridSize="10" guides="1" tooltips="1" connect="1" arrows="1" fold="1" page="1" pageScale="1" pageWidth="850" pageHeight="1100" math="0" shadow="0"><root><mxCell id="RzLAN-Q7Uu7yfAdAAKND-0"/><mxCell id="RzLAN-Q7Uu7yfAdAAKND-1" parent="RzLAN-Q7Uu7yfAdAAKND-0"/><mxCell id="RzLAN-Q7Uu7yfAdAAKND-2" style="edgeStyle=orthogonalEdgeStyle;rounded=0;orthogonalLoop=1;jettySize=auto;html=1;entryX=0;entryY=0.5;entryDx=0;entryDy=0;" edge="1" parent="RzLAN-Q7Uu7yfAdAAKND-1" source="RzLAN-Q7Uu7yfAdAAKND-3" target="RzLAN-Q7Uu7yfAdAAKND-15"><mxGeometry relative="1" as="geometry"/></mxCell><mxCell id="RzLAN-Q7Uu7yfAdAAKND-3" value="home" style="rounded=0;whiteSpace=wrap;html=1;" vertex="1" parent="RzLAN-Q7Uu7yfAdAAKND-1"><mxGeometry x="530" y="90" width="120" height="60" as="geometry"/></mxCell><mxCell id="RzLAN-Q7Uu7yfAdAAKND-4" value="" style="edgeStyle=orthogonalEdgeStyle;rounded=0;orthogonalLoop=1;jettySize=auto;html=1;" edge="1" parent="RzLAN-Q7Uu7yfAdAAKND-1" source="RzLAN-Q7Uu7yfAdAAKND-6" target="RzLAN-Q7Uu7yfAdAAKND-8"><mxGeometry relative="1" as="geometry"/></mxCell><mxCell id="RzLAN-Q7Uu7yfAdAAKND-5" style="edgeStyle=orthogonalEdgeStyle;rounded=0;orthogonalLoop=1;jettySize=auto;html=1;entryX=0;entryY=0.5;entryDx=0;entryDy=0;" edge="1" parent="RzLAN-Q7Uu7yfAdAAKND-1" source="RzLAN-Q7Uu7yfAdAAKND-6" target="RzLAN-Q7Uu7yfAdAAKND-10"><mxGeometry relative="1" as="geometry"/></mxCell><mxCell id="RzLAN-Q7Uu7yfAdAAKND-6" value="landing" style="rounded=0;whiteSpace=wrap;html=1;fillColor=#fff2cc;strokeColor=#d6b656;" vertex="1" parent="RzLAN-Q7Uu7yfAdAAKND-1"><mxGeometry x="10" y="90" width="120" height="60" as="geometry"/></mxCell><mxCell id="RzLAN-Q7Uu7yfAdAAKND-7" style="edgeStyle=orthogonalEdgeStyle;rounded=0;orthogonalLoop=1;jettySize=auto;html=1;entryX=0;entryY=0.5;entryDx=0;entryDy=0;" edge="1" parent="RzLAN-Q7Uu7yfAdAAKND-1" source="RzLAN-Q7Uu7yfAdAAKND-8" target="RzLAN-Q7Uu7yfAdAAKND-3"><mxGeometry relative="1" as="geometry"/></mxCell><mxCell id="RzLAN-Q7Uu7yfAdAAKND-8" value="login" style="whiteSpace=wrap;html=1;rounded=0;" vertex="1" parent="RzLAN-Q7Uu7yfAdAAKND-1"><mxGeometry x="345" y="90" width="120" height="60" as="geometry"/></mxCell><mxCell id="RzLAN-Q7Uu7yfAdAAKND-9" style="edgeStyle=orthogonalEdgeStyle;rounded=0;orthogonalLoop=1;jettySize=auto;html=1;" edge="1" parent="RzLAN-Q7Uu7yfAdAAKND-1" source="RzLAN-Q7Uu7yfAdAAKND-10" target="RzLAN-Q7Uu7yfAdAAKND-8"><mxGeometry relative="1" as="geometry"/></mxCell><mxCell id="RzLAN-Q7Uu7yfAdAAKND-10" value="register" style="whiteSpace=wrap;html=1;rounded=0;" vertex="1" parent="RzLAN-Q7Uu7yfAdAAKND-1"><mxGeometry x="210" y="180" width="120" height="60" as="geometry"/></mxCell><mxCell id="RzLAN-Q7Uu7yfAdAAKND-11" style="edgeStyle=orthogonalEdgeStyle;rounded=0;orthogonalLoop=1;jettySize=auto;html=1;" edge="1" parent="RzLAN-Q7Uu7yfAdAAKND-1" source="RzLAN-Q7Uu7yfAdAAKND-15" target="RzLAN-Q7Uu7yfAdAAKND-20"><mxGeometry relative="1" as="geometry"/></mxCell><mxCell id="RzLAN-Q7Uu7yfAdAAKND-12" style="edgeStyle=orthogonalEdgeStyle;rounded=0;orthogonalLoop=1;jettySize=auto;html=1;entryX=0.5;entryY=0;entryDx=0;entryDy=0;" edge="1" parent="RzLAN-Q7Uu7yfAdAAKND-1" source="RzLAN-Q7Uu7yfAdAAKND-15" target="RzLAN-Q7Uu7yfAdAAKND-21"><mxGeometry relative="1" as="geometry"/></mxCell><mxCell id="RzLAN-Q7Uu7yfAdAAKND-13" style="edgeStyle=orthogonalEdgeStyle;rounded=0;orthogonalLoop=1;jettySize=auto;html=1;entryX=0;entryY=0.5;entryDx=0;entryDy=0;" edge="1" parent="RzLAN-Q7Uu7yfAdAAKND-1" source="RzLAN-Q7Uu7yfAdAAKND-15" target="RzLAN-Q7Uu7yfAdAAKND-19"><mxGeometry relative="1" as="geometry"/></mxCell><mxCell id="RzLAN-Q7Uu7yfAdAAKND-14" style="edgeStyle=orthogonalEdgeStyle;rounded=0;orthogonalLoop=1;jettySize=auto;html=1;entryX=0;entryY=0.5;entryDx=0;entryDy=0;" edge="1" parent="RzLAN-Q7Uu7yfAdAAKND-1" source="RzLAN-Q7Uu7yfAdAAKND-15" target="RzLAN-Q7Uu7yfAdAAKND-25"><mxGeometry relative="1" as="geometry"><Array as="points"><mxPoint x="900" y="120"/><mxPoint x="900" y="40"/></Array></mxGeometry></mxCell><mxCell id="RzLAN-Q7Uu7yfAdAAKND-15" value="projects" style="rounded=0;whiteSpace=wrap;html=1;" vertex="1" parent="RzLAN-Q7Uu7yfAdAAKND-1"><mxGeometry x="700" y="90" width="120" height="60" as="geometry"/></mxCell><mxCell id="RzLAN-Q7Uu7yfAdAAKND-16" value="" style="edgeStyle=orthogonalEdgeStyle;rounded=0;orthogonalLoop=1;jettySize=auto;html=1;" edge="1" parent="RzLAN-Q7Uu7yfAdAAKND-1" source="RzLAN-Q7Uu7yfAdAAKND-19" target="RzLAN-Q7Uu7yfAdAAKND-22"><mxGeometry relative="1" as="geometry"/></mxCell><mxCell id="RzLAN-Q7Uu7yfAdAAKND-17" style="edgeStyle=orthogonalEdgeStyle;rounded=0;orthogonalLoop=1;jettySize=auto;html=1;entryX=0;entryY=0.5;entryDx=0;entryDy=0;" edge="1" parent="RzLAN-Q7Uu7yfAdAAKND-1" source="RzLAN-Q7Uu7yfAdAAKND-19" target="RzLAN-Q7Uu7yfAdAAKND-23"><mxGeometry relative="1" as="geometry"/></mxCell><mxCell id="RzLAN-Q7Uu7yfAdAAKND-18" style="edgeStyle=orthogonalEdgeStyle;rounded=0;orthogonalLoop=1;jettySize=auto;html=1;entryX=0;entryY=0.5;entryDx=0;entryDy=0;" edge="1" parent="RzLAN-Q7Uu7yfAdAAKND-1" source="RzLAN-Q7Uu7yfAdAAKND-19" target="RzLAN-Q7Uu7yfAdAAKND-24"><mxGeometry relative="1" as="geometry"/></mxCell><mxCell id="RzLAN-Q7Uu7yfAdAAKND-19" value="backlog" style="rounded=0;whiteSpace=wrap;html=1;" vertex="1" parent="RzLAN-Q7Uu7yfAdAAKND-1"><mxGeometry x="1010" y="90" width="120" height="60" as="geometry"/></mxCell><mxCell id="RzLAN-Q7Uu7yfAdAAKND-20" value="add project form" style="rounded=0;whiteSpace=wrap;html=1;" vertex="1" parent="RzLAN-Q7Uu7yfAdAAKND-1"><mxGeometry x="700" y="180" width="120" height="60" as="geometry"/></mxCell><mxCell id="RzLAN-Q7Uu7yfAdAAKND-21" value="edit project form" style="rounded=0;whiteSpace=wrap;html=1;" vertex="1" parent="RzLAN-Q7Uu7yfAdAAKND-1"><mxGeometry x="840" y="180" width="120" height="60" as="geometry"/></mxCell><mxCell id="RzLAN-Q7Uu7yfAdAAKND-22" value="edit sprint form" style="whiteSpace=wrap;html=1;rounded=0;" vertex="1" parent="RzLAN-Q7Uu7yfAdAAKND-1"><mxGeometry x="1010" y="180" width="120" height="60" as="geometry"/></mxCell><mxCell id="RzLAN-Q7Uu7yfAdAAKND-23" value="add task form" style="rounded=0;whiteSpace=wrap;html=1;" vertex="1" parent="RzLAN-Q7Uu7yfAdAAKND-1"><mxGeometry x="1190" y="90" width="120" height="60" as="geometry"/></mxCell><mxCell id="RzLAN-Q7Uu7yfAdAAKND-24" value="edit task form" style="rounded=0;whiteSpace=wrap;html=1;" vertex="1" parent="RzLAN-Q7Uu7yfAdAAKND-1"><mxGeometry x="1190" y="170" width="120" height="60" as="geometry"/></mxCell><mxCell id="RzLAN-Q7Uu7yfAdAAKND-25" value="board" style="rounded=0;whiteSpace=wrap;html=1;fillColor=#d5e8d4;strokeColor=#82b366;" vertex="1" parent="RzLAN-Q7Uu7yfAdAAKND-1"><mxGeometry x="1010" y="10" width="120" height="60" as="geometry"/></mxCell></root></mxGraphModel></diagram></mxfile>